<svg width="60" height="60" viewBox="0 0 60 60" fill="none" xmlns="http://www.w3.org/2000/svg">
<circle cx="30" cy="30" r="29" fill="#0E3355" stroke="#FFD460" stroke-width="2"/>
<path d="M21.616 16.96H13.864V18.4H14.104C14.584 18.4 14.976 18.456 15.28 18.568C15.584 18.68 15.736 18.912 15.736 19.264V31.696C15.736 32.048 15.584 32.28 15.28 32.392C14.976 32.504 14.584 32.56 14.104 32.56H13.864V34H27.304V28.384H25.408L25.168 31.24C25.152 31.544 25.04 31.768 24.832 31.912C24.64 32.056 24.336 32.16 23.92 32.224C23.504 32.272 22.968 32.296 22.312 32.296H19.576V19.264C19.576 18.912 19.736 18.68 20.056 18.568C20.376 18.456 20.792 18.4 21.304 18.4H21.616V16.96Z" fill="#FFC01F"/>
<path d="M21.616 16.96H22.616V15.96H21.616V16.96ZM13.864 16.96V15.96H12.864V16.96H13.864ZM13.864 18.4H12.864V19.4H13.864V18.4ZM15.28 18.568L14.9343 19.5063L14.9343 19.5063L15.28 18.568ZM13.864 32.56V31.56H12.864V32.56H13.864ZM13.864 34H12.864V35H13.864V34ZM27.304 34V35H28.304V34H27.304ZM27.304 28.384H28.304V27.384H27.304V28.384ZM25.408 28.384V27.384H24.4885L24.4115 28.3003L25.408 28.384ZM25.168 31.24L24.1715 31.1563L24.1702 31.1718L24.1694 31.1874L25.168 31.24ZM24.832 31.912L24.2628 31.0898L24.2472 31.1006L24.232 31.112L24.832 31.912ZM23.92 32.224L24.0346 33.2174L24.0534 33.2152L24.0721 33.2124L23.92 32.224ZM19.576 32.296H18.576V33.296H19.576V32.296ZM20.056 18.568L20.3863 19.5119L20.3864 19.5119L20.056 18.568ZM21.616 18.4V19.4H22.616V18.4H21.616ZM21.616 15.96H13.864V17.96H21.616V15.96ZM12.864 16.96V18.4H14.864V16.96H12.864ZM13.864 19.4H14.104V17.4H13.864V19.4ZM14.104 19.4C14.5174 19.4 14.7807 19.4498 14.9343 19.5063L15.6257 17.6297C15.1713 17.4622 14.6506 17.4 14.104 17.4V19.4ZM14.9343 19.5063C14.9305 19.505 14.9081 19.4961 14.8773 19.4728C14.8451 19.4486 14.8125 19.4152 14.7855 19.374C14.7295 19.2884 14.736 19.2306 14.736 19.264H16.736C16.736 18.9454 16.6665 18.5956 16.4585 18.278C16.246 17.9537 15.9439 17.7469 15.6257 17.6297L14.9343 19.5063ZM14.736 19.264V31.696H16.736V19.264H14.736ZM14.736 31.696C14.736 31.7294 14.7295 31.6716 14.7855 31.586C14.8125 31.5448 14.8451 31.5114 14.8773 31.4872C14.9081 31.4639 14.9305 31.455 14.9343 31.4537L15.6257 33.3303C15.9439 33.2131 16.246 33.0063 16.4585 32.682C16.6665 32.3644 16.736 32.0146 16.736 31.696H14.736ZM14.9343 31.4537C14.7807 31.5102 14.5174 31.56 14.104 31.56V33.56C14.6506 33.56 15.1713 33.4978 15.6257 33.3303L14.9343 31.4537ZM14.104 31.56H13.864V33.56H14.104V31.56ZM12.864 32.56V34H14.864V32.56H12.864ZM13.864 35H27.304V33H13.864V35ZM28.304 34V28.384H26.304V34H28.304ZM27.304 27.384H25.408V29.384H27.304V27.384ZM24.4115 28.3003L24.1715 31.1563L26.1645 31.3237L26.4045 28.4677L24.4115 28.3003ZM24.1694 31.1874C24.1671 31.231 24.1603 31.2233 24.1776 31.1888C24.1862 31.1716 24.1987 31.152 24.2154 31.1328C24.2321 31.1137 24.2489 31.0994 24.2628 31.0898L25.4012 32.7342C25.9165 32.3775 26.138 31.8355 26.1666 31.2926L24.1694 31.1874ZM24.232 31.112C24.2428 31.1039 24.2205 31.123 24.1363 31.1518C24.0542 31.1799 23.9344 31.21 23.7679 31.2356L24.0721 33.2124C24.545 33.1396 25.0435 33.0034 25.432 32.712L24.232 31.112ZM23.8054 31.2306C23.4424 31.2725 22.9485 31.296 22.312 31.296V33.296C22.9875 33.296 23.5656 33.2715 24.0346 33.2174L23.8054 31.2306ZM22.312 31.296H19.576V33.296H22.312V31.296ZM20.576 32.296V19.264H18.576V32.296H20.576ZM20.576 19.264C20.576 19.24 20.5802 19.3054 20.5192 19.3937C20.4561 19.4852 20.3848 19.5124 20.3863 19.5119L19.7257 17.6241C19.4072 17.7356 19.0959 17.9348 18.8728 18.2583C18.6518 18.5786 18.576 18.936 18.576 19.264H20.576ZM20.3864 19.5119C20.5606 19.4509 20.8531 19.4 21.304 19.4V17.4C20.7309 17.4 20.1914 17.4611 19.7256 17.6241L20.3864 19.5119ZM21.304 19.4H21.616V17.4H21.304V19.4ZM22.616 18.4V16.96H20.616V18.4H22.616Z" fill="#FFD460"/>
<path d="M39.616 23.96H31.864V25.4H32.104C32.584 25.4 32.976 25.456 33.28 25.568C33.584 25.68 33.736 25.912 33.736 26.264V38.696C33.736 39.048 33.584 39.28 33.28 39.392C32.976 39.504 32.584 39.56 32.104 39.56H31.864V41H45.304V35.384H43.408L43.168 38.24C43.152 38.544 43.04 38.768 42.832 38.912C42.64 39.056 42.336 39.16 41.92 39.224C41.504 39.272 40.968 39.296 40.312 39.296H37.576V26.264C37.576 25.912 37.736 25.68 38.056 25.568C38.376 25.456 38.792 25.4 39.304 25.4H39.616V23.96Z" fill="#FFC01F"/>
<path d="M39.616 23.96H40.616V22.96H39.616V23.96ZM31.864 23.96V22.96H30.864V23.96H31.864ZM31.864 25.4H30.864V26.4H31.864V25.4ZM33.28 25.568L32.9343 26.5063L32.9343 26.5063L33.28 25.568ZM31.864 39.56V38.56H30.864V39.56H31.864ZM31.864 41H30.864V42H31.864V41ZM45.304 41V42H46.304V41H45.304ZM45.304 35.384H46.304V34.384H45.304V35.384ZM43.408 35.384V34.384H42.4885L42.4115 35.3003L43.408 35.384ZM43.168 38.24L42.1715 38.1563L42.1702 38.1718L42.1694 38.1874L43.168 38.24ZM42.832 38.912L42.2628 38.0898L42.2472 38.1006L42.232 38.112L42.832 38.912ZM41.92 39.224L42.0346 40.2174L42.0534 40.2152L42.0721 40.2124L41.92 39.224ZM37.576 39.296H36.576V40.296H37.576V39.296ZM38.056 25.568L38.3863 26.5119L38.3864 26.5119L38.056 25.568ZM39.616 25.4V26.4H40.616V25.4H39.616ZM39.616 22.96H31.864V24.96H39.616V22.96ZM30.864 23.96V25.4H32.864V23.96H30.864ZM31.864 26.4H32.104V24.4H31.864V26.4ZM32.104 26.4C32.5174 26.4 32.7807 26.4498 32.9343 26.5063L33.6257 24.6297C33.1713 24.4622 32.6506 24.4 32.104 24.4V26.4ZM32.9343 26.5063C32.9305 26.505 32.9081 26.4961 32.8773 26.4728C32.8451 26.4486 32.8125 26.4152 32.7855 26.374C32.7295 26.2884 32.736 26.2306 32.736 26.264H34.736C34.736 25.9454 34.6665 25.5956 34.4585 25.278C34.246 24.9537 33.9439 24.7469 33.6257 24.6297L32.9343 26.5063ZM32.736 26.264V38.696H34.736V26.264H32.736ZM32.736 38.696C32.736 38.7294 32.7295 38.6716 32.7855 38.586C32.8125 38.5448 32.8451 38.5114 32.8773 38.4872C32.9081 38.4639 32.9305 38.455 32.9343 38.4537L33.6257 40.3303C33.9439 40.2131 34.246 40.0063 34.4585 39.682C34.6665 39.3644 34.736 39.0146 34.736 38.696H32.736ZM32.9343 38.4537C32.7807 38.5102 32.5174 38.56 32.104 38.56V40.56C32.6506 40.56 33.1713 40.4978 33.6257 40.3303L32.9343 38.4537ZM32.104 38.56H31.864V40.56H32.104V38.56ZM30.864 39.56V41H32.864V39.56H30.864ZM31.864 42H45.304V40H31.864V42ZM46.304 41V35.384H44.304V41H46.304ZM45.304 34.384H43.408V36.384H45.304V34.384ZM42.4115 35.3003L42.1715 38.1563L44.1645 38.3237L44.4045 35.4677L42.4115 35.3003ZM42.1694 38.1874C42.1671 38.231 42.1603 38.2233 42.1776 38.1888C42.1862 38.1716 42.1987 38.152 42.2154 38.1328C42.2321 38.1137 42.2489 38.0994 42.2628 38.0898L43.4012 39.7342C43.9165 39.3775 44.138 38.8355 44.1666 38.2926L42.1694 38.1874ZM42.232 38.112C42.2428 38.1039 42.2205 38.123 42.1363 38.1518C42.0542 38.1799 41.9344 38.21 41.7679 38.2356L42.0721 40.2124C42.545 40.1396 43.0435 40.0034 43.432 39.712L42.232 38.112ZM41.8054 38.2306C41.4424 38.2725 40.9485 38.296 40.312 38.296V40.296C40.9875 40.296 41.5656 40.2715 42.0346 40.2174L41.8054 38.2306ZM40.312 38.296H37.576V40.296H40.312V38.296ZM38.576 39.296V26.264H36.576V39.296H38.576ZM38.576 26.264C38.576 26.24 38.5802 26.3054 38.5192 26.3937C38.4561 26.4852 38.3848 26.5124 38.3863 26.5119L37.7257 24.6241C37.4072 24.7356 37.0959 24.9348 36.8728 25.2583C36.6518 25.5786 36.576 25.936 36.576 26.264H38.576ZM38.3864 26.5119C38.5606 26.4509 38.8531 26.4 39.304 26.4V24.4C38.7309 24.4 38.1914 24.4611 37.7256 24.6241L38.3864 26.5119ZM39.304 26.4H39.616V24.4H39.304V26.4ZM40.616 25.4V23.96H38.616V25.4H40.616Z" fill="#FFD460"/>
</svg>
