<svg width="28" height="25" viewBox="0 0 28 25" fill="none" xmlns="http://www.w3.org/2000/svg">
<g filter="url(#filter0_d_567_2957)">
<path fill-rule="evenodd" clip-rule="evenodd" d="M22 0H6C4.9 0 4 0.9 4 2V16C4 17.1 4.9 18 6 18H22C23.1 18 24 17.1 24 16V2C24 0.9 23.1 0 22 0ZM12 14H7V12H12V14ZM12 10H7V8H12V10ZM12 6H7V4H12V6ZM16.82 12L14 9.16L15.41 7.75L16.82 9.17L19.99 6L21.41 7.42L16.82 12Z" fill="white"/>
</g>
<defs>
<filter id="filter0_d_567_2957" x="0.571429" y="0" width="26.8571" height="24.8571" filterUnits="userSpaceOnUse" color-interpolation-filters="sRGB">
<feFlood flood-opacity="0" result="BackgroundImageFix"/>
<feColorMatrix in="SourceAlpha" type="matrix" values="0 0 0 0 0 0 0 0 0 0 0 0 0 0 0 0 0 0 127 0" result="hardAlpha"/>
<feOffset dy="3.42857"/>
<feGaussianBlur stdDeviation="1.71429"/>
<feComposite in2="hardAlpha" operator="out"/>
<feColorMatrix type="matrix" values="0 0 0 0 0 0 0 0 0 0 0 0 0 0 0 0 0 0 0.25 0"/>
<feBlend mode="normal" in2="BackgroundImageFix" result="effect1_dropShadow_567_2957"/>
<feBlend mode="normal" in="SourceGraphic" in2="effect1_dropShadow_567_2957" result="shape"/>
</filter>
</defs>
</svg>
