<svg width="24" height="24" viewBox="0 0 24 24" fill="none" xmlns="http://www.w3.org/2000/svg">
<g filter="url(#filter0_d_567_2962)">
<path d="M5.6 3.2H4V14.4C4 15.28 4.72 16 5.6 16H16.8V14.4H5.6V3.2ZM18.4 0H8.8C7.92 0 7.2 0.72 7.2 1.6V11.2C7.2 12.08 7.92 12.8 8.8 12.8H18.4C19.28 12.8 20 12.08 20 11.2V1.6C20 0.72 19.28 0 18.4 0ZM17.6 7.2H9.6V5.6H17.6V7.2ZM14.4 10.4H9.6V8.8H14.4V10.4ZM17.6 4H9.6V2.4H17.6V4Z" fill="white"/>
</g>
<defs>
<filter id="filter0_d_567_2962" x="0" y="0" width="24" height="24" filterUnits="userSpaceOnUse" color-interpolation-filters="sRGB">
<feFlood flood-opacity="0" result="BackgroundImageFix"/>
<feColorMatrix in="SourceAlpha" type="matrix" values="0 0 0 0 0 0 0 0 0 0 0 0 0 0 0 0 0 0 127 0" result="hardAlpha"/>
<feOffset dy="4"/>
<feGaussianBlur stdDeviation="2"/>
<feComposite in2="hardAlpha" operator="out"/>
<feColorMatrix type="matrix" values="0 0 0 0 0 0 0 0 0 0 0 0 0 0 0 0 0 0 0.25 0"/>
<feBlend mode="normal" in2="BackgroundImageFix" result="effect1_dropShadow_567_2962"/>
<feBlend mode="normal" in="SourceGraphic" in2="effect1_dropShadow_567_2962" result="shape"/>
</filter>
</defs>
</svg>
